<svg xmlns="http://www.w3.org/2000/svg" viewBox="0 0 500 500">
  <defs>
    <style>
      .keypad-cls-1 {
        fill: #33333e;
      }

      .keypad-cls-2, .keypad-cls-3 {
        fill: #03888c;
      }

      .keypad-cls-2 {
        stroke: #ddd;
        stroke-linecap: round;
        stroke-miterlimit: 10;
        stroke-width: 5px;
      }
    </style>
  </defs>
  <g id="Layer_3" data-name="Layer 3">
    <rect class="keypad-cls-1" width="500" height="500"/>
    <path class="keypad-cls-2" d="M187.5,187.5V40.08A15.08,15.08,0,0,1,202.58,25h94.84A15.08,15.08,0,0,1,312.5,40.08V187.5"/>
    <path class="keypad-cls-2" d="M312.5,187.5H459.75A15.25,15.25,0,0,1,475,202.75v94.5a15.25,15.25,0,0,1-15.25,15.25H312.5"/>
    <path class="keypad-cls-2" d="M312.5,312.5V459.92A15.08,15.08,0,0,1,297.42,475H202.58a15.08,15.08,0,0,1-15.08-15.08V312.5"/>
    <path class="keypad-cls-2" d="M187.5,312.5H40.08A15.08,15.08,0,0,1,25,297.42V202.58A15.08,15.08,0,0,1,40.08,187.5H187.5"/>
    <rect class="keypad-cls-3" x="190" y="190" width="120" height="120"/>
    <polygon class="keypad-cls-3" points="310 190 312.5 190 312.5 310 310 310 310 312.5 190 312.5 190 310 187.5 310 187.5 190 190 190 190 187.5 310 187.5 310 190"/>
    <path class="keypad-cls-2" d="M115,211,55,245.67a5,5,0,0,0,0,8.66L115,289a5,5,0,0,0,7.5-4.33V215.36A5,5,0,0,0,115,211Z"/>
    <path class="keypad-cls-2" d="M377.5,215.36v69.28A5,5,0,0,0,385,289l60-34.64a5,5,0,0,0,0-8.66L385,211A5,5,0,0,0,377.5,215.36Z"/>
    <path class="keypad-cls-2" d="M245.67,55,211,115a5,5,0,0,0,4.33,7.5h69.28A5,5,0,0,0,289,115L254.33,55A5,5,0,0,0,245.67,55Z"/>
    <path class="keypad-cls-2" d="M254.33,445,289,385a5,5,0,0,0-4.33-7.5H215.36A5,5,0,0,0,211,385l34.64,60A5,5,0,0,0,254.33,445Z"/>
  </g>
</svg>
