<svg xmlns="http://www.w3.org/2000/svg" viewBox="0 0 500 500">
  <defs>
    <style>
      .keypad-cls-1, .keypad-cls-2 {
        fill: #03888c;
      }

      .keypad-cls-1 {
        stroke: #ddd;
        stroke-linecap: round;
        stroke-miterlimit: 10;
        stroke-width: 5px;
      }
    </style>
  </defs>
  <g id="Layer_3" data-name="Layer 3">
    <path class="keypad-cls-1" d="M181.25,181.25V19.09A16.59,16.59,0,0,1,197.84,2.5H302.16a16.59,16.59,0,0,1,16.59,16.59V181.25"/>
    <path class="keypad-cls-1" d="M318.75,181.25h162A16.77,16.77,0,0,1,497.5,198V302a16.77,16.77,0,0,1-16.77,16.77h-162"/>
    <path class="keypad-cls-1" d="M318.75,318.75V480.91a16.59,16.59,0,0,1-16.59,16.59H197.84a16.59,16.59,0,0,1-16.59-16.59V318.75"/>
    <path class="keypad-cls-1" d="M181.25,318.75H19.09A16.59,16.59,0,0,1,2.5,302.16V197.84a16.59,16.59,0,0,1,16.59-16.59H181.25"/>
    <rect class="keypad-cls-2" x="184" y="184" width="132" height="132"/>
    <polygon class="keypad-cls-2" points="316 184 318.75 184 318.75 316 316 316 316 318.75 184 318.75 184 316 181.25 316 181.25 184 184 184 184 181.25 316 181.25 316 184"/>
    <path class="keypad-cls-1" d="M102.25,206.7l-67.5,39a5,5,0,0,0,0,8.66l67.5,39a5,5,0,0,0,7.5-4.33V211A5,5,0,0,0,102.25,206.7Z"/>
    <path class="keypad-cls-1" d="M390.25,211V289a5,5,0,0,0,7.5,4.33l67.5-39a5,5,0,0,0,0-8.66l-67.5-39A5,5,0,0,0,390.25,211Z"/>
    <path class="keypad-cls-1" d="M245.67,34.75l-39,67.5a5,5,0,0,0,4.33,7.5H289a5,5,0,0,0,4.33-7.5l-39-67.5A5,5,0,0,0,245.67,34.75Z"/>
    <path class="keypad-cls-1" d="M254.33,465.25l39-67.5a5,5,0,0,0-4.33-7.5H211a5,5,0,0,0-4.33,7.5l39,67.5A5,5,0,0,0,254.33,465.25Z"/>
  </g>
</svg>
